<svg id="Layer_1" data-name="Layer 1" xmlns="http://www.w3.org/2000/svg" xmlns:xlink="http://www.w3.org/1999/xlink" viewBox="0 0 1210.1 682.7"><defs><style>.cls-1,.cls-3{fill:none;}.cls-2{clip-path:url(#clip-path);}.cls-3{stroke:#fff;}</style><clipPath id="clip-path" transform="translate(-35 -28.8)"><rect class="cls-1" x="35" y="29" width="1210.2" height="682.54"/></clipPath></defs><title>line</title><g class="cls-2"><path class="cls-3" d="M35.7,439c-1.6-16.1,6.9-29.7,15.7-42.8,17.7-26.4,40.7-49.6,66.1-68.5,10.9-8.1,24.9-19.8,39.9-17.4s23.9,22.5,34.1,33.1A39.5,39.5,0,0,0,212,356.8a588.6,588.6,0,0,0,85-2.6c23.6-1.5,47.1-3.5,70.6-5.7a140.2,140.2,0,0,1,26.7-1.4c10.2,1.6,13.8,7.4,20.5,14.4,29.5,31.1,58,64.7,93.1,89.8a223.6,223.6,0,0,0,71.2,35.2A464.9,464.9,0,0,0,652.9,500c14.7,1.7,29.3,3,44,4a133.6,133.6,0,0,0,15.5,0,29.2,29.2,0,0,1,11.2,6.4l37.5,27.4a653.8,653.8,0,0,0,89.8,50.5,219.8,219.8,0,0,0,82.8,22.6q37.9,4.4,76.1,7.5a146.3,146.3,0,0,0,45.1-5.3c20.8-6.3,37.8-20.9,57.8-29.4,22.2-9.4,44.5-15,61.7-33.2,23.4-24.7,38.3-54.7,44.9-87.8,6-29.5,6.3-59.6,11.1-89.2,3.5-18.1,6.9-36.2,10.5-54.2a168.6,168.6,0,0,0,1.9-60.1,276.9,276.9,0,0,0-20.3-86,554.7,554.7,0,0,0-64.7-83.3q-30.6-42.8-82.2-53a252.6,252.6,0,0,0-102-4.3,313.1,313.1,0,0,1-41.3,13.9A302,302,0,0,0,894,58.2a268.2,268.2,0,0,0-32.4,13.2c-8.8,5.3-17.8,10.2-27,14.8-23.3,11.2-46.8,19.9-68.8,33.6-68.4,42.4-126.6,99.6-169.1,168a695.8,695.8,0,0,0-54,109.5,197.6,197.6,0,0,0-15.8,54.9q.5,66.6,43.1,120a426.6,426.6,0,0,0,95.8,99.4A248.4,248.4,0,0,0,756,710a222.6,222.6,0,0,0,117.1-20.4Q924,670.4,976.5,656c24.2-6.1,48.4-12.6,72.4-19.7a483.2,483.2,0,0,1,59.6-14.3q59.4-12.2,89.8-66.8a380.9,380.9,0,0,0,37.2-178.3,797.1,797.1,0,0,0-7.9-140.6q-26.5-81-97.6-130.9A297.9,297.9,0,0,0,1014.9,46q-30.7-6.9-62-10.8c-2.2-.2-25.6-4.7-30.5,2.4" transform="translate(-35 -28.8)"/></g></svg>